<svg id="Layer_1" data-name="Layer 1" xmlns="http://www.w3.org/2000/svg" viewBox="0 0 38.54 21.23"><defs><style>.cls-1{fill:#231f20;}</style></defs><title>AJC_Button</title><path class="cls-1" d="M0,15.82l.52-.17c.75-.23,1-.49,1.65-2.36L6.91.29H9.83l4.86,13c.66,1.77.92,2.21,1.65,2.42l.42.12v.78H7.9v-.79l.66-.17c.61-.17.87-.49.87-1A6.42,6.42,0,0,0,9,12.82l-.36-1H4.15l-.35,1a6,6,0,0,0-.4,1.7c0,.71.28.87,1.11,1.11l.59.17v.78H0ZM4.55,10.6H8.2L6.43,5.32H6.35Z" transform="translate(0 0)"/><path class="cls-1" d="M12.8,18.82A1.67,1.67,0,0,1,14.36,17h.28c1.32,0,1.93.54,2.24,2.59.07.47.17.56.36.56.49,0,.75-.38.75-1.6V3.1c0-1.6-.24-1.7-1-1.89L16.32,1V.27h8.62V1l-.66.16c-.83.22-1,.29-1,1.89V15c0,3.65-2.57,6.19-6.6,6.19-2.57,0-3.82-1.06-3.82-2.43" transform="translate(0 0)"/><path class="cls-1" d="M24.64,8.58c0-6,4.22-8.58,8.86-8.58A18,18,0,0,1,38,.54l.31,5h-.83a22.58,22.58,0,0,0-2.1-3.34,2.43,2.43,0,0,0-2.17-1.13c-2.42,0-3.09,2-3.09,7,0,6.32,1,7.73,3.28,7.73a2.72,2.72,0,0,0,2.38-1.37A19.13,19.13,0,0,0,37.74,11h.8l-.29,5a14.34,14.34,0,0,1-5.14.92c-5,0-8.48-2.92-8.48-8.32" transform="translate(0 0)"/></svg>